# xmcd
#
# Track frame offsets: 
#        150
#        33739
#        56570
#        83386
#        111088
#        140846
#        165672
#        194193
#        220587
#        250303
#
# Disc length: 3682 seconds
#
# Revision: 1
# Processed by: cddbd v1.5.2PL0 Copyright (c) Steve Scherf et al.
# Submitted via: ExactAudioCopy v0.99pb5
#
DISCID=900e600a
DTITLE=Various Artist - Back and 4th - a Hotflush compilation - CD1
DYEAR=2011
DGENRE=UK Bass
TTITLE0=Sepalcure - Taking You Back 
TTITLE1=Boxcutter - LOADtime
TTITLE2=Boddika - Warehouse 
TTITLE3=dBridge - Knew You Were The 1
TTITLE4=Scuba - Feel it 
TTITLE5=FaltyDL - Regret
TTITLE6=Sigha - Fold
TTITLE7=George FitzGerald - We Bilateral 
TTITLE8=Incyde - Axis
TTITLE9=Roska - Measureless
EXTD=
EXTT0=
EXTT1=
EXTT2=
EXTT3=
EXTT4=
EXTT5=
EXTT6=
EXTT7=
EXTT8=
EXTT9=
PLAYORDER=
